<?xml version="1.0" encoding="utf-8" standalone="no"?>
<!DOCTYPE svg PUBLIC "-//W3C//DTD SVG 1.1//EN"
  "http://www.w3.org/Graphics/SVG/1.1/DTD/svg11.dtd">
<!-- Created with matplotlib (http://matplotlib.org/) -->
<svg height="288pt" version="1.1" viewBox="0 0 360 288" width="360pt" xmlns="http://www.w3.org/2000/svg" xmlns:xlink="http://www.w3.org/1999/xlink">
 <defs>
  <style type="text/css">
*{stroke-linecap:butt;stroke-linejoin:round;}
  </style>
 </defs>
 <g id="figure_1">
  <g id="patch_1">
   <path d="M 0 288 
L 360 288 
L 360 0 
L 0 0 
z
" style="fill:#ffffff;"/>
  </g>
  <g id="axes_1">
   <g id="patch_2">
    <path d="M 39.53 249.64 
L 344.388449 249.64 
L 344.388449 26.88 
L 39.53 26.88 
z
" style="fill:#ffffff;"/>
   </g>
   <g id="matplotlib.axis_1">
    <g id="xtick_1">
     <g id="line2d_1">
      <defs>
       <path d="M 0 0 
L 0 3.5 
" id="m7f41b235ea" style="stroke:#000000;stroke-width:0.8;"/>
      </defs>
      <g>
       <use style="stroke:#000000;stroke-width:0.8;" x="56.104301" xlink:href="#m7f41b235ea" y="249.64"/>
      </g>
     </g>
     <g id="text_1">
      <!-- Mon,03.04.17 -->
      <defs>
       <path d="M 9.8125 72.90625 
L 24.515625 72.90625 
L 43.109375 23.296875 
L 61.8125 72.90625 
L 76.515625 72.90625 
L 76.515625 0 
L 66.890625 0 
L 66.890625 64.015625 
L 48.09375 14.015625 
L 38.1875 14.015625 
L 19.390625 64.015625 
L 19.390625 0 
L 9.8125 0 
z
" id="DejaVuSans-4d"/>
       <path d="M 30.609375 48.390625 
Q 23.390625 48.390625 19.1875 42.75 
Q 14.984375 37.109375 14.984375 27.296875 
Q 14.984375 17.484375 19.15625 11.84375 
Q 23.34375 6.203125 30.609375 6.203125 
Q 37.796875 6.203125 41.984375 11.859375 
Q 46.1875 17.53125 46.1875 27.296875 
Q 46.1875 37.015625 41.984375 42.703125 
Q 37.796875 48.390625 30.609375 48.390625 
M 30.609375 56 
Q 42.328125 56 49.015625 48.375 
Q 55.71875 40.765625 55.71875 27.296875 
Q 55.71875 13.875 49.015625 6.21875 
Q 42.328125 -1.421875 30.609375 -1.421875 
Q 18.84375 -1.421875 12.171875 6.21875 
Q 5.515625 13.875 5.515625 27.296875 
Q 5.515625 40.765625 12.171875 48.375 
Q 18.84375 56 30.609375 56 
" id="DejaVuSans-6f"/>
       <path d="M 54.890625 33.015625 
L 54.890625 0 
L 45.90625 0 
L 45.90625 32.71875 
Q 45.90625 40.484375 42.875 44.328125 
Q 39.84375 48.1875 33.796875 48.1875 
Q 26.515625 48.1875 22.3125 43.546875 
Q 18.109375 38.921875 18.109375 30.90625 
L 18.109375 0 
L 9.078125 0 
L 9.078125 54.6875 
L 18.109375 54.6875 
L 18.109375 46.1875 
Q 21.34375 51.125 25.703125 53.5625 
Q 30.078125 56 35.796875 56 
Q 45.21875 56 50.046875 50.171875 
Q 54.890625 44.34375 54.890625 33.015625 
" id="DejaVuSans-6e"/>
       <path d="M 11.71875 12.40625 
L 22.015625 12.40625 
L 22.015625 4 
L 14.015625 -11.625 
L 7.71875 -11.625 
L 11.71875 4 
z
" id="DejaVuSans-2c"/>
       <path d="M 31.78125 66.40625 
Q 24.171875 66.40625 20.328125 58.90625 
Q 16.5 51.421875 16.5 36.375 
Q 16.5 21.390625 20.328125 13.890625 
Q 24.171875 6.390625 31.78125 6.390625 
Q 39.453125 6.390625 43.28125 13.890625 
Q 47.125 21.390625 47.125 36.375 
Q 47.125 51.421875 43.28125 58.90625 
Q 39.453125 66.40625 31.78125 66.40625 
M 31.78125 74.21875 
Q 44.046875 74.21875 50.515625 64.515625 
Q 56.984375 54.828125 56.984375 36.375 
Q 56.984375 17.96875 50.515625 8.265625 
Q 44.046875 -1.421875 31.78125 -1.421875 
Q 19.53125 -1.421875 13.0625 8.265625 
Q 6.59375 17.96875 6.59375 36.375 
Q 6.59375 54.828125 13.0625 64.515625 
Q 19.53125 74.21875 31.78125 74.21875 
" id="DejaVuSans-30"/>
       <path d="M 40.578125 39.3125 
Q 47.65625 37.796875 51.625 33 
Q 55.609375 28.21875 55.609375 21.1875 
Q 55.609375 10.40625 48.1875 4.484375 
Q 40.765625 -1.421875 27.09375 -1.421875 
Q 22.515625 -1.421875 17.65625 -0.515625 
Q 12.796875 0.390625 7.625 2.203125 
L 7.625 11.71875 
Q 11.71875 9.328125 16.59375 8.109375 
Q 21.484375 6.890625 26.8125 6.890625 
Q 36.078125 6.890625 40.9375 10.546875 
Q 45.796875 14.203125 45.796875 21.1875 
Q 45.796875 27.640625 41.28125 31.265625 
Q 36.765625 34.90625 28.71875 34.90625 
L 20.21875 34.90625 
L 20.21875 43.015625 
L 29.109375 43.015625 
Q 36.375 43.015625 40.234375 45.921875 
Q 44.09375 48.828125 44.09375 54.296875 
Q 44.09375 59.90625 40.109375 62.90625 
Q 36.140625 65.921875 28.71875 65.921875 
Q 24.65625 65.921875 20.015625 65.03125 
Q 15.375 64.15625 9.8125 62.3125 
L 9.8125 71.09375 
Q 15.4375 72.65625 20.34375 73.4375 
Q 25.25 74.21875 29.59375 74.21875 
Q 40.828125 74.21875 47.359375 69.109375 
Q 53.90625 64.015625 53.90625 55.328125 
Q 53.90625 49.265625 50.4375 45.09375 
Q 46.96875 40.921875 40.578125 39.3125 
" id="DejaVuSans-33"/>
       <path d="M 10.6875 12.40625 
L 21 12.40625 
L 21 0 
L 10.6875 0 
z
" id="DejaVuSans-2e"/>
       <path d="M 37.796875 64.3125 
L 12.890625 25.390625 
L 37.796875 25.390625 
z
M 35.203125 72.90625 
L 47.609375 72.90625 
L 47.609375 25.390625 
L 58.015625 25.390625 
L 58.015625 17.1875 
L 47.609375 17.1875 
L 47.609375 0 
L 37.796875 0 
L 37.796875 17.1875 
L 4.890625 17.1875 
L 4.890625 26.703125 
z
" id="DejaVuSans-34"/>
       <path d="M 12.40625 8.296875 
L 28.515625 8.296875 
L 28.515625 63.921875 
L 10.984375 60.40625 
L 10.984375 69.390625 
L 28.421875 72.90625 
L 38.28125 72.90625 
L 38.28125 8.296875 
L 54.390625 8.296875 
L 54.390625 0 
L 12.40625 0 
z
" id="DejaVuSans-31"/>
       <path d="M 8.203125 72.90625 
L 55.078125 72.90625 
L 55.078125 68.703125 
L 28.609375 0 
L 18.3125 0 
L 43.21875 64.59375 
L 8.203125 64.59375 
z
" id="DejaVuSans-37"/>
      </defs>
      <g transform="translate(35.466176 261.199063)scale(0.06 -0.06)">
       <use xlink:href="#DejaVuSans-4d"/>
       <use x="86.279297" xlink:href="#DejaVuSans-6f"/>
       <use x="147.460938" xlink:href="#DejaVuSans-6e"/>
       <use x="210.839844" xlink:href="#DejaVuSans-2c"/>
       <use x="242.626953" xlink:href="#DejaVuSans-30"/>
       <use x="306.25" xlink:href="#DejaVuSans-33"/>
       <use x="369.873047" xlink:href="#DejaVuSans-2e"/>
       <use x="401.660156" xlink:href="#DejaVuSans-30"/>
       <use x="465.283203" xlink:href="#DejaVuSans-34"/>
       <use x="528.90625" xlink:href="#DejaVuSans-2e"/>
       <use x="560.693359" xlink:href="#DejaVuSans-31"/>
       <use x="624.316406" xlink:href="#DejaVuSans-37"/>
      </g>
     </g>
    </g>
    <g id="xtick_2">
     <g id="line2d_2">
      <g>
       <use style="stroke:#000000;stroke-width:0.8;" x="101.389275" xlink:href="#m7f41b235ea" y="249.64"/>
      </g>
     </g>
     <g id="text_2">
      <!-- Tue,04.04.17 -->
      <defs>
       <path d="M -0.296875 72.90625 
L 61.375 72.90625 
L 61.375 64.59375 
L 35.5 64.59375 
L 35.5 0 
L 25.59375 0 
L 25.59375 64.59375 
L -0.296875 64.59375 
z
" id="DejaVuSans-54"/>
       <path d="M 8.5 21.578125 
L 8.5 54.6875 
L 17.484375 54.6875 
L 17.484375 21.921875 
Q 17.484375 14.15625 20.5 10.265625 
Q 23.53125 6.390625 29.59375 6.390625 
Q 36.859375 6.390625 41.078125 11.03125 
Q 45.3125 15.671875 45.3125 23.6875 
L 45.3125 54.6875 
L 54.296875 54.6875 
L 54.296875 0 
L 45.3125 0 
L 45.3125 8.40625 
Q 42.046875 3.421875 37.71875 1 
Q 33.40625 -1.421875 27.6875 -1.421875 
Q 18.265625 -1.421875 13.375 4.4375 
Q 8.5 10.296875 8.5 21.578125 
M 31.109375 56 
z
" id="DejaVuSans-75"/>
       <path d="M 56.203125 29.59375 
L 56.203125 25.203125 
L 14.890625 25.203125 
Q 15.484375 15.921875 20.484375 11.0625 
Q 25.484375 6.203125 34.421875 6.203125 
Q 39.59375 6.203125 44.453125 7.46875 
Q 49.3125 8.734375 54.109375 11.28125 
L 54.109375 2.78125 
Q 49.265625 0.734375 44.1875 -0.34375 
Q 39.109375 -1.421875 33.890625 -1.421875 
Q 20.796875 -1.421875 13.15625 6.1875 
Q 5.515625 13.8125 5.515625 26.8125 
Q 5.515625 40.234375 12.765625 48.109375 
Q 20.015625 56 32.328125 56 
Q 43.359375 56 49.78125 48.890625 
Q 56.203125 41.796875 56.203125 29.59375 
M 47.21875 32.234375 
Q 47.125 39.59375 43.09375 43.984375 
Q 39.0625 48.390625 32.421875 48.390625 
Q 24.90625 48.390625 20.390625 44.140625 
Q 15.875 39.890625 15.1875 32.171875 
z
" id="DejaVuSans-65"/>
      </defs>
      <g transform="translate(81.503963 261.199063)scale(0.06 -0.06)">
       <use xlink:href="#DejaVuSans-54"/>
       <use x="60.849609" xlink:href="#DejaVuSans-75"/>
       <use x="124.228516" xlink:href="#DejaVuSans-65"/>
       <use x="185.751953" xlink:href="#DejaVuSans-2c"/>
       <use x="217.539062" xlink:href="#DejaVuSans-30"/>
       <use x="281.162109" xlink:href="#DejaVuSans-34"/>
       <use x="344.785156" xlink:href="#DejaVuSans-2e"/>
       <use x="376.572266" xlink:href="#DejaVuSans-30"/>
       <use x="440.195312" xlink:href="#DejaVuSans-34"/>
       <use x="503.818359" xlink:href="#DejaVuSans-2e"/>
       <use x="535.605469" xlink:href="#DejaVuSans-31"/>
       <use x="599.228516" xlink:href="#DejaVuSans-37"/>
      </g>
     </g>
    </g>
    <g id="xtick_3">
     <g id="line2d_3">
      <g>
       <use style="stroke:#000000;stroke-width:0.8;" x="146.67425" xlink:href="#m7f41b235ea" y="249.64"/>
      </g>
     </g>
     <g id="text_3">
      <!-- Wed,05.04.17 -->
      <defs>
       <path d="M 3.328125 72.90625 
L 13.28125 72.90625 
L 28.609375 11.28125 
L 43.890625 72.90625 
L 54.984375 72.90625 
L 70.3125 11.28125 
L 85.59375 72.90625 
L 95.609375 72.90625 
L 77.296875 0 
L 64.890625 0 
L 49.515625 63.28125 
L 33.984375 0 
L 21.578125 0 
z
" id="DejaVuSans-57"/>
       <path d="M 45.40625 46.390625 
L 45.40625 75.984375 
L 54.390625 75.984375 
L 54.390625 0 
L 45.40625 0 
L 45.40625 8.203125 
Q 42.578125 3.328125 38.25 0.953125 
Q 33.9375 -1.421875 27.875 -1.421875 
Q 17.96875 -1.421875 11.734375 6.484375 
Q 5.515625 14.40625 5.515625 27.296875 
Q 5.515625 40.1875 11.734375 48.09375 
Q 17.96875 56 27.875 56 
Q 33.9375 56 38.25 53.625 
Q 42.578125 51.265625 45.40625 46.390625 
M 14.796875 27.296875 
Q 14.796875 17.390625 18.875 11.75 
Q 22.953125 6.109375 30.078125 6.109375 
Q 37.203125 6.109375 41.296875 11.75 
Q 45.40625 17.390625 45.40625 27.296875 
Q 45.40625 37.203125 41.296875 42.84375 
Q 37.203125 48.484375 30.078125 48.484375 
Q 22.953125 48.484375 18.875 42.84375 
Q 14.796875 37.203125 14.796875 27.296875 
" id="DejaVuSans-64"/>
       <path d="M 10.796875 72.90625 
L 49.515625 72.90625 
L 49.515625 64.59375 
L 19.828125 64.59375 
L 19.828125 46.734375 
Q 21.96875 47.46875 24.109375 47.828125 
Q 26.265625 48.1875 28.421875 48.1875 
Q 40.625 48.1875 47.75 41.5 
Q 54.890625 34.8125 54.890625 23.390625 
Q 54.890625 11.625 47.5625 5.09375 
Q 40.234375 -1.421875 26.90625 -1.421875 
Q 22.3125 -1.421875 17.546875 -0.640625 
Q 12.796875 0.140625 7.71875 1.703125 
L 7.71875 11.625 
Q 12.109375 9.234375 16.796875 8.0625 
Q 21.484375 6.890625 26.703125 6.890625 
Q 35.15625 6.890625 40.078125 11.328125 
Q 45.015625 15.765625 45.015625 23.390625 
Q 45.015625 31 40.078125 35.4375 
Q 35.15625 39.890625 26.703125 39.890625 
Q 22.75 39.890625 18.8125 39.015625 
Q 14.890625 38.140625 10.796875 36.28125 
z
" id="DejaVuSans-35"/>
      </defs>
      <g transform="translate(125.647062 261.199063)scale(0.06 -0.06)">
       <use xlink:href="#DejaVuSans-57"/>
       <use x="98.798828" xlink:href="#DejaVuSans-65"/>
       <use x="160.322266" xlink:href="#DejaVuSans-64"/>
       <use x="223.798828" xlink:href="#DejaVuSans-2c"/>
       <use x="255.585938" xlink:href="#DejaVuSans-30"/>
       <use x="319.208984" xlink:href="#DejaVuSans-35"/>
       <use x="382.832031" xlink:href="#DejaVuSans-2e"/>
       <use x="414.619141" xlink:href="#DejaVuSans-30"/>
       <use x="478.242188" xlink:href="#DejaVuSans-34"/>
       <use x="541.865234" xlink:href="#DejaVuSans-2e"/>
       <use x="573.652344" xlink:href="#DejaVuSans-31"/>
       <use x="637.275391" xlink:href="#DejaVuSans-37"/>
      </g>
     </g>
    </g>
    <g id="xtick_4">
     <g id="line2d_4">
      <g>
       <use style="stroke:#000000;stroke-width:0.8;" x="191.959225" xlink:href="#m7f41b235ea" y="249.64"/>
      </g>
     </g>
     <g id="text_4">
      <!-- Thu,06.04.17 -->
      <defs>
       <path d="M 54.890625 33.015625 
L 54.890625 0 
L 45.90625 0 
L 45.90625 32.71875 
Q 45.90625 40.484375 42.875 44.328125 
Q 39.84375 48.1875 33.796875 48.1875 
Q 26.515625 48.1875 22.3125 43.546875 
Q 18.109375 38.921875 18.109375 30.90625 
L 18.109375 0 
L 9.078125 0 
L 9.078125 75.984375 
L 18.109375 75.984375 
L 18.109375 46.1875 
Q 21.34375 51.125 25.703125 53.5625 
Q 30.078125 56 35.796875 56 
Q 45.21875 56 50.046875 50.171875 
Q 54.890625 44.34375 54.890625 33.015625 
" id="DejaVuSans-68"/>
       <path d="M 33.015625 40.375 
Q 26.375 40.375 22.484375 35.828125 
Q 18.609375 31.296875 18.609375 23.390625 
Q 18.609375 15.53125 22.484375 10.953125 
Q 26.375 6.390625 33.015625 6.390625 
Q 39.65625 6.390625 43.53125 10.953125 
Q 47.40625 15.53125 47.40625 23.390625 
Q 47.40625 31.296875 43.53125 35.828125 
Q 39.65625 40.375 33.015625 40.375 
M 52.59375 71.296875 
L 52.59375 62.3125 
Q 48.875 64.0625 45.09375 64.984375 
Q 41.3125 65.921875 37.59375 65.921875 
Q 27.828125 65.921875 22.671875 59.328125 
Q 17.53125 52.734375 16.796875 39.40625 
Q 19.671875 43.65625 24.015625 45.921875 
Q 28.375 48.1875 33.59375 48.1875 
Q 44.578125 48.1875 50.953125 41.515625 
Q 57.328125 34.859375 57.328125 23.390625 
Q 57.328125 12.15625 50.6875 5.359375 
Q 44.046875 -1.421875 33.015625 -1.421875 
Q 20.359375 -1.421875 13.671875 8.265625 
Q 6.984375 17.96875 6.984375 36.375 
Q 6.984375 53.65625 15.1875 63.9375 
Q 23.390625 74.21875 37.203125 74.21875 
Q 40.921875 74.21875 44.703125 73.484375 
Q 48.484375 72.75 52.59375 71.296875 
" id="DejaVuSans-36"/>
      </defs>
      <g transform="translate(172.011568 261.199063)scale(0.06 -0.06)">
       <use xlink:href="#DejaVuSans-54"/>
       <use x="61.083984" xlink:href="#DejaVuSans-68"/>
       <use x="124.462891" xlink:href="#DejaVuSans-75"/>
       <use x="187.841797" xlink:href="#DejaVuSans-2c"/>
       <use x="219.628906" xlink:href="#DejaVuSans-30"/>
       <use x="283.251953" xlink:href="#DejaVuSans-36"/>
       <use x="346.875" xlink:href="#DejaVuSans-2e"/>
       <use x="378.662109" xlink:href="#DejaVuSans-30"/>
       <use x="442.285156" xlink:href="#DejaVuSans-34"/>
       <use x="505.908203" xlink:href="#DejaVuSans-2e"/>
       <use x="537.695312" xlink:href="#DejaVuSans-31"/>
       <use x="601.318359" xlink:href="#DejaVuSans-37"/>
      </g>
     </g>
    </g>
    <g id="xtick_5">
     <g id="line2d_5">
      <g>
       <use style="stroke:#000000;stroke-width:0.8;" x="237.244199" xlink:href="#m7f41b235ea" y="249.64"/>
      </g>
     </g>
     <g id="text_5">
      <!-- Fri,07.04.17 -->
      <defs>
       <path d="M 9.8125 72.90625 
L 51.703125 72.90625 
L 51.703125 64.59375 
L 19.671875 64.59375 
L 19.671875 43.109375 
L 48.578125 43.109375 
L 48.578125 34.8125 
L 19.671875 34.8125 
L 19.671875 0 
L 9.8125 0 
z
" id="DejaVuSans-46"/>
       <path d="M 41.109375 46.296875 
Q 39.59375 47.171875 37.8125 47.578125 
Q 36.03125 48 33.890625 48 
Q 26.265625 48 22.1875 43.046875 
Q 18.109375 38.09375 18.109375 28.8125 
L 18.109375 0 
L 9.078125 0 
L 9.078125 54.6875 
L 18.109375 54.6875 
L 18.109375 46.1875 
Q 20.953125 51.171875 25.484375 53.578125 
Q 30.03125 56 36.53125 56 
Q 37.453125 56 38.578125 55.875 
Q 39.703125 55.765625 41.0625 55.515625 
z
" id="DejaVuSans-72"/>
       <path d="M 9.421875 54.6875 
L 18.40625 54.6875 
L 18.40625 0 
L 9.421875 0 
z
M 9.421875 75.984375 
L 18.40625 75.984375 
L 18.40625 64.59375 
L 9.421875 64.59375 
z
" id="DejaVuSans-69"/>
      </defs>
      <g transform="translate(219.14248 261.199063)scale(0.06 -0.06)">
       <use xlink:href="#DejaVuSans-46"/>
       <use x="57.410156" xlink:href="#DejaVuSans-72"/>
       <use x="98.523438" xlink:href="#DejaVuSans-69"/>
       <use x="126.306641" xlink:href="#DejaVuSans-2c"/>
       <use x="158.09375" xlink:href="#DejaVuSans-30"/>
       <use x="221.716797" xlink:href="#DejaVuSans-37"/>
       <use x="285.339844" xlink:href="#DejaVuSans-2e"/>
       <use x="317.126953" xlink:href="#DejaVuSans-30"/>
       <use x="380.75" xlink:href="#DejaVuSans-34"/>
       <use x="444.373047" xlink:href="#DejaVuSans-2e"/>
       <use x="476.160156" xlink:href="#DejaVuSans-31"/>
       <use x="539.783203" xlink:href="#DejaVuSans-37"/>
      </g>
     </g>
    </g>
    <g id="xtick_6">
     <g id="line2d_6">
      <g>
       <use style="stroke:#000000;stroke-width:0.8;" x="282.529174" xlink:href="#m7f41b235ea" y="249.64"/>
      </g>
     </g>
     <g id="text_6">
      <!-- Sat,08.04.17 -->
      <defs>
       <path d="M 53.515625 70.515625 
L 53.515625 60.890625 
Q 47.90625 63.578125 42.921875 64.890625 
Q 37.9375 66.21875 33.296875 66.21875 
Q 25.25 66.21875 20.875 63.09375 
Q 16.5 59.96875 16.5 54.203125 
Q 16.5 49.359375 19.40625 46.890625 
Q 22.3125 44.4375 30.421875 42.921875 
L 36.375 41.703125 
Q 47.40625 39.59375 52.65625 34.296875 
Q 57.90625 29 57.90625 20.125 
Q 57.90625 9.515625 50.796875 4.046875 
Q 43.703125 -1.421875 29.984375 -1.421875 
Q 24.8125 -1.421875 18.96875 -0.25 
Q 13.140625 0.921875 6.890625 3.21875 
L 6.890625 13.375 
Q 12.890625 10.015625 18.65625 8.296875 
Q 24.421875 6.59375 29.984375 6.59375 
Q 38.421875 6.59375 43.015625 9.90625 
Q 47.609375 13.234375 47.609375 19.390625 
Q 47.609375 24.75 44.3125 27.78125 
Q 41.015625 30.8125 33.5 32.328125 
L 27.484375 33.5 
Q 16.453125 35.6875 11.515625 40.375 
Q 6.59375 45.0625 6.59375 53.421875 
Q 6.59375 63.09375 13.40625 68.65625 
Q 20.21875 74.21875 32.171875 74.21875 
Q 37.3125 74.21875 42.625 73.28125 
Q 47.953125 72.359375 53.515625 70.515625 
" id="DejaVuSans-53"/>
       <path d="M 34.28125 27.484375 
Q 23.390625 27.484375 19.1875 25 
Q 14.984375 22.515625 14.984375 16.5 
Q 14.984375 11.71875 18.140625 8.90625 
Q 21.296875 6.109375 26.703125 6.109375 
Q 34.1875 6.109375 38.703125 11.40625 
Q 43.21875 16.703125 43.21875 25.484375 
L 43.21875 27.484375 
z
M 52.203125 31.203125 
L 52.203125 0 
L 43.21875 0 
L 43.21875 8.296875 
Q 40.140625 3.328125 35.546875 0.953125 
Q 30.953125 -1.421875 24.3125 -1.421875 
Q 15.921875 -1.421875 10.953125 3.296875 
Q 6 8.015625 6 15.921875 
Q 6 25.140625 12.171875 29.828125 
Q 18.359375 34.515625 30.609375 34.515625 
L 43.21875 34.515625 
L 43.21875 35.40625 
Q 43.21875 41.609375 39.140625 45 
Q 35.0625 48.390625 27.6875 48.390625 
Q 23 48.390625 18.546875 47.265625 
Q 14.109375 46.140625 10.015625 43.890625 
L 10.015625 52.203125 
Q 14.9375 54.109375 19.578125 55.046875 
Q 24.21875 56 28.609375 56 
Q 40.484375 56 46.34375 49.84375 
Q 52.203125 43.703125 52.203125 31.203125 
" id="DejaVuSans-61"/>
       <path d="M 18.3125 70.21875 
L 18.3125 54.6875 
L 36.8125 54.6875 
L 36.8125 47.703125 
L 18.3125 47.703125 
L 18.3125 18.015625 
Q 18.3125 11.328125 20.140625 9.421875 
Q 21.96875 7.515625 27.59375 7.515625 
L 36.8125 7.515625 
L 36.8125 0 
L 27.59375 0 
Q 17.1875 0 13.234375 3.875 
Q 9.28125 7.765625 9.28125 18.015625 
L 9.28125 47.703125 
L 2.6875 47.703125 
L 2.6875 54.6875 
L 9.28125 54.6875 
L 9.28125 70.21875 
z
" id="DejaVuSans-74"/>
       <path d="M 31.78125 34.625 
Q 24.75 34.625 20.71875 30.859375 
Q 16.703125 27.09375 16.703125 20.515625 
Q 16.703125 13.921875 20.71875 10.15625 
Q 24.75 6.390625 31.78125 6.390625 
Q 38.8125 6.390625 42.859375 10.171875 
Q 46.921875 13.96875 46.921875 20.515625 
Q 46.921875 27.09375 42.890625 30.859375 
Q 38.875 34.625 31.78125 34.625 
M 21.921875 38.8125 
Q 15.578125 40.375 12.03125 44.71875 
Q 8.5 49.078125 8.5 55.328125 
Q 8.5 64.0625 14.71875 69.140625 
Q 20.953125 74.21875 31.78125 74.21875 
Q 42.671875 74.21875 48.875 69.140625 
Q 55.078125 64.0625 55.078125 55.328125 
Q 55.078125 49.078125 51.53125 44.71875 
Q 48 40.375 41.703125 38.8125 
Q 48.828125 37.15625 52.796875 32.3125 
Q 56.78125 27.484375 56.78125 20.515625 
Q 56.78125 9.90625 50.3125 4.234375 
Q 43.84375 -1.421875 31.78125 -1.421875 
Q 19.734375 -1.421875 13.25 4.234375 
Q 6.78125 9.90625 6.78125 20.515625 
Q 6.78125 27.484375 10.78125 32.3125 
Q 14.796875 37.15625 21.921875 38.8125 
M 18.3125 54.390625 
Q 18.3125 48.734375 21.84375 45.5625 
Q 25.390625 42.390625 31.78125 42.390625 
Q 38.140625 42.390625 41.71875 45.5625 
Q 45.3125 48.734375 45.3125 54.390625 
Q 45.3125 60.0625 41.71875 63.234375 
Q 38.140625 66.40625 31.78125 66.40625 
Q 25.390625 66.40625 21.84375 63.234375 
Q 18.3125 60.0625 18.3125 54.390625 
" id="DejaVuSans-38"/>
      </defs>
      <g transform="translate(263.297299 261.199063)scale(0.06 -0.06)">
       <use xlink:href="#DejaVuSans-53"/>
       <use x="63.476562" xlink:href="#DejaVuSans-61"/>
       <use x="124.755859" xlink:href="#DejaVuSans-74"/>
       <use x="163.964844" xlink:href="#DejaVuSans-2c"/>
       <use x="195.751953" xlink:href="#DejaVuSans-30"/>
       <use x="259.375" xlink:href="#DejaVuSans-38"/>
       <use x="322.998047" xlink:href="#DejaVuSans-2e"/>
       <use x="354.785156" xlink:href="#DejaVuSans-30"/>
       <use x="418.408203" xlink:href="#DejaVuSans-34"/>
       <use x="482.03125" xlink:href="#DejaVuSans-2e"/>
       <use x="513.818359" xlink:href="#DejaVuSans-31"/>
       <use x="577.441406" xlink:href="#DejaVuSans-37"/>
      </g>
     </g>
    </g>
    <g id="xtick_7">
     <g id="line2d_7">
      <g>
       <use style="stroke:#000000;stroke-width:0.8;" x="327.814148" xlink:href="#m7f41b235ea" y="249.64"/>
      </g>
     </g>
     <g id="text_7">
      <!-- Sun,09.04.17 -->
      <defs>
       <path d="M 10.984375 1.515625 
L 10.984375 10.5 
Q 14.703125 8.734375 18.5 7.8125 
Q 22.3125 6.890625 25.984375 6.890625 
Q 35.75 6.890625 40.890625 13.453125 
Q 46.046875 20.015625 46.78125 33.40625 
Q 43.953125 29.203125 39.59375 26.953125 
Q 35.25 24.703125 29.984375 24.703125 
Q 19.046875 24.703125 12.671875 31.3125 
Q 6.296875 37.9375 6.296875 49.421875 
Q 6.296875 60.640625 12.9375 67.421875 
Q 19.578125 74.21875 30.609375 74.21875 
Q 43.265625 74.21875 49.921875 64.515625 
Q 56.59375 54.828125 56.59375 36.375 
Q 56.59375 19.140625 48.40625 8.859375 
Q 40.234375 -1.421875 26.421875 -1.421875 
Q 22.703125 -1.421875 18.890625 -0.6875 
Q 15.09375 0.046875 10.984375 1.515625 
M 30.609375 32.421875 
Q 37.25 32.421875 41.125 36.953125 
Q 45.015625 41.5 45.015625 49.421875 
Q 45.015625 57.28125 41.125 61.84375 
Q 37.25 66.40625 30.609375 66.40625 
Q 23.96875 66.40625 20.09375 61.84375 
Q 16.21875 57.28125 16.21875 49.421875 
Q 16.21875 41.5 20.09375 36.953125 
Q 23.96875 32.421875 30.609375 32.421875 
" id="DejaVuSans-39"/>
      </defs>
      <g transform="translate(307.794305 261.199063)scale(0.06 -0.06)">
       <use xlink:href="#DejaVuSans-53"/>
       <use x="63.476562" xlink:href="#DejaVuSans-75"/>
       <use x="126.855469" xlink:href="#DejaVuSans-6e"/>
       <use x="190.234375" xlink:href="#DejaVuSans-2c"/>
       <use x="222.021484" xlink:href="#DejaVuSans-30"/>
       <use x="285.644531" xlink:href="#DejaVuSans-39"/>
       <use x="349.267578" xlink:href="#DejaVuSans-2e"/>
       <use x="381.054688" xlink:href="#DejaVuSans-30"/>
       <use x="444.677734" xlink:href="#DejaVuSans-34"/>
       <use x="508.300781" xlink:href="#DejaVuSans-2e"/>
       <use x="540.087891" xlink:href="#DejaVuSans-31"/>
       <use x="603.710938" xlink:href="#DejaVuSans-37"/>
      </g>
     </g>
    </g>
    <g id="text_8">
     <!-- Kalenderwoche -->
     <defs>
      <path d="M 9.8125 72.90625 
L 19.671875 72.90625 
L 19.671875 42.09375 
L 52.390625 72.90625 
L 65.09375 72.90625 
L 28.90625 38.921875 
L 67.671875 0 
L 54.6875 0 
L 19.671875 35.109375 
L 19.671875 0 
L 9.8125 0 
z
" id="DejaVuSans-4b"/>
      <path d="M 9.421875 75.984375 
L 18.40625 75.984375 
L 18.40625 0 
L 9.421875 0 
z
" id="DejaVuSans-6c"/>
      <path d="M 4.203125 54.6875 
L 13.1875 54.6875 
L 24.421875 12.015625 
L 35.59375 54.6875 
L 46.1875 54.6875 
L 57.421875 12.015625 
L 68.609375 54.6875 
L 77.59375 54.6875 
L 63.28125 0 
L 52.6875 0 
L 40.921875 44.828125 
L 29.109375 0 
L 18.5 0 
z
" id="DejaVuSans-77"/>
      <path d="M 48.78125 52.59375 
L 48.78125 44.1875 
Q 44.96875 46.296875 41.140625 47.34375 
Q 37.3125 48.390625 33.40625 48.390625 
Q 24.65625 48.390625 19.8125 42.84375 
Q 14.984375 37.3125 14.984375 27.296875 
Q 14.984375 17.28125 19.8125 11.734375 
Q 24.65625 6.203125 33.40625 6.203125 
Q 37.3125 6.203125 41.140625 7.25 
Q 44.96875 8.296875 48.78125 10.40625 
L 48.78125 2.09375 
Q 45.015625 0.34375 40.984375 -0.53125 
Q 36.96875 -1.421875 32.421875 -1.421875 
Q 20.0625 -1.421875 12.78125 6.34375 
Q 5.515625 14.109375 5.515625 27.296875 
Q 5.515625 40.671875 12.859375 48.328125 
Q 20.21875 56 33.015625 56 
Q 37.15625 56 41.109375 55.140625 
Q 45.0625 54.296875 48.78125 52.59375 
" id="DejaVuSans-63"/>
     </defs>
     <g transform="translate(153.533443 274.045313)scale(0.1 -0.1)">
      <use xlink:href="#DejaVuSans-4b"/>
      <use x="65.560547" xlink:href="#DejaVuSans-61"/>
      <use x="126.839844" xlink:href="#DejaVuSans-6c"/>
      <use x="154.623047" xlink:href="#DejaVuSans-65"/>
      <use x="216.146484" xlink:href="#DejaVuSans-6e"/>
      <use x="279.525391" xlink:href="#DejaVuSans-64"/>
      <use x="343.001953" xlink:href="#DejaVuSans-65"/>
      <use x="404.525391" xlink:href="#DejaVuSans-72"/>
      <use x="445.638672" xlink:href="#DejaVuSans-77"/>
      <use x="527.425781" xlink:href="#DejaVuSans-6f"/>
      <use x="588.607422" xlink:href="#DejaVuSans-63"/>
      <use x="643.587891" xlink:href="#DejaVuSans-68"/>
      <use x="706.966797" xlink:href="#DejaVuSans-65"/>
     </g>
    </g>
   </g>
   <g id="matplotlib.axis_2">
    <g id="ytick_1">
     <g id="line2d_8">
      <path clip-path="url(#pe9fd949cb1)" d="M 39.53 249.64 
L 344.388449 249.64 
" style="fill:none;stroke:#6dc3ec;stroke-linecap:square;stroke-width:0.8;"/>
     </g>
     <g id="line2d_9">
      <defs>
       <path d="M 0 0 
L -3.5 0 
" id="me38ce33d3a" style="stroke:#000000;stroke-width:0.8;"/>
      </defs>
      <g>
       <use style="stroke:#000000;stroke-width:0.8;" x="39.53" xlink:href="#me38ce33d3a" y="249.64"/>
      </g>
     </g>
     <g id="text_9">
      <!-- 0 -->
      <g transform="translate(28.7125 251.919531)scale(0.06 -0.06)">
       <use xlink:href="#DejaVuSans-30"/>
      </g>
     </g>
    </g>
    <g id="ytick_2">
     <g id="line2d_10">
      <path clip-path="url(#pe9fd949cb1)" d="M 39.53 219.007437 
L 344.388449 219.007437 
" style="fill:none;stroke:#6dc3ec;stroke-linecap:square;stroke-width:0.8;"/>
     </g>
     <g id="line2d_11">
      <g>
       <use style="stroke:#000000;stroke-width:0.8;" x="39.53" xlink:href="#me38ce33d3a" y="219.007437"/>
      </g>
     </g>
     <g id="text_10">
      <!-- 10 -->
      <g transform="translate(24.895 221.286968)scale(0.06 -0.06)">
       <use xlink:href="#DejaVuSans-31"/>
       <use x="63.623047" xlink:href="#DejaVuSans-30"/>
      </g>
     </g>
    </g>
    <g id="ytick_3">
     <g id="line2d_12">
      <path clip-path="url(#pe9fd949cb1)" d="M 39.53 188.374873 
L 344.388449 188.374873 
" style="fill:none;stroke:#6dc3ec;stroke-linecap:square;stroke-width:0.8;"/>
     </g>
     <g id="line2d_13">
      <g>
       <use style="stroke:#000000;stroke-width:0.8;" x="39.53" xlink:href="#me38ce33d3a" y="188.374873"/>
      </g>
     </g>
     <g id="text_11">
      <!-- 20 -->
      <defs>
       <path d="M 19.1875 8.296875 
L 53.609375 8.296875 
L 53.609375 0 
L 7.328125 0 
L 7.328125 8.296875 
Q 12.9375 14.109375 22.625 23.890625 
Q 32.328125 33.6875 34.8125 36.53125 
Q 39.546875 41.84375 41.421875 45.53125 
Q 43.3125 49.21875 43.3125 52.78125 
Q 43.3125 58.59375 39.234375 62.25 
Q 35.15625 65.921875 28.609375 65.921875 
Q 23.96875 65.921875 18.8125 64.3125 
Q 13.671875 62.703125 7.8125 59.421875 
L 7.8125 69.390625 
Q 13.765625 71.78125 18.9375 73 
Q 24.125 74.21875 28.421875 74.21875 
Q 39.75 74.21875 46.484375 68.546875 
Q 53.21875 62.890625 53.21875 53.421875 
Q 53.21875 48.921875 51.53125 44.890625 
Q 49.859375 40.875 45.40625 35.40625 
Q 44.1875 33.984375 37.640625 27.21875 
Q 31.109375 20.453125 19.1875 8.296875 
" id="DejaVuSans-32"/>
      </defs>
      <g transform="translate(24.895 190.654405)scale(0.06 -0.06)">
       <use xlink:href="#DejaVuSans-32"/>
       <use x="63.623047" xlink:href="#DejaVuSans-30"/>
      </g>
     </g>
    </g>
    <g id="ytick_4">
     <g id="line2d_14">
      <path clip-path="url(#pe9fd949cb1)" d="M 39.53 157.74231 
L 344.388449 157.74231 
" style="fill:none;stroke:#6dc3ec;stroke-linecap:square;stroke-width:0.8;"/>
     </g>
     <g id="line2d_15">
      <g>
       <use style="stroke:#000000;stroke-width:0.8;" x="39.53" xlink:href="#me38ce33d3a" y="157.74231"/>
      </g>
     </g>
     <g id="text_12">
      <!-- 30 -->
      <g transform="translate(24.895 160.021841)scale(0.06 -0.06)">
       <use xlink:href="#DejaVuSans-33"/>
       <use x="63.623047" xlink:href="#DejaVuSans-30"/>
      </g>
     </g>
    </g>
    <g id="ytick_5">
     <g id="line2d_16">
      <path clip-path="url(#pe9fd949cb1)" d="M 39.53 127.109747 
L 344.388449 127.109747 
" style="fill:none;stroke:#6dc3ec;stroke-linecap:square;stroke-width:0.8;"/>
     </g>
     <g id="line2d_17">
      <g>
       <use style="stroke:#000000;stroke-width:0.8;" x="39.53" xlink:href="#me38ce33d3a" y="127.109747"/>
      </g>
     </g>
     <g id="text_13">
      <!-- 40 -->
      <g transform="translate(24.895 129.389278)scale(0.06 -0.06)">
       <use xlink:href="#DejaVuSans-34"/>
       <use x="63.623047" xlink:href="#DejaVuSans-30"/>
      </g>
     </g>
    </g>
    <g id="ytick_6">
     <g id="line2d_18">
      <path clip-path="url(#pe9fd949cb1)" d="M 39.53 96.477184 
L 344.388449 96.477184 
" style="fill:none;stroke:#6dc3ec;stroke-linecap:square;stroke-width:0.8;"/>
     </g>
     <g id="line2d_19">
      <g>
       <use style="stroke:#000000;stroke-width:0.8;" x="39.53" xlink:href="#me38ce33d3a" y="96.477184"/>
      </g>
     </g>
     <g id="text_14">
      <!-- 50 -->
      <g transform="translate(24.895 98.756715)scale(0.06 -0.06)">
       <use xlink:href="#DejaVuSans-35"/>
       <use x="63.623047" xlink:href="#DejaVuSans-30"/>
      </g>
     </g>
    </g>
    <g id="ytick_7">
     <g id="line2d_20">
      <path clip-path="url(#pe9fd949cb1)" d="M 39.53 65.84462 
L 344.388449 65.84462 
" style="fill:none;stroke:#6dc3ec;stroke-linecap:square;stroke-width:0.8;"/>
     </g>
     <g id="line2d_21">
      <g>
       <use style="stroke:#000000;stroke-width:0.8;" x="39.53" xlink:href="#me38ce33d3a" y="65.84462"/>
      </g>
     </g>
     <g id="text_15">
      <!-- 60 -->
      <g transform="translate(24.895 68.124152)scale(0.06 -0.06)">
       <use xlink:href="#DejaVuSans-36"/>
       <use x="63.623047" xlink:href="#DejaVuSans-30"/>
      </g>
     </g>
    </g>
    <g id="ytick_8">
     <g id="line2d_22">
      <path clip-path="url(#pe9fd949cb1)" d="M 39.53 35.212057 
L 344.388449 35.212057 
" style="fill:none;stroke:#6dc3ec;stroke-linecap:square;stroke-width:0.8;"/>
     </g>
     <g id="line2d_23">
      <g>
       <use style="stroke:#000000;stroke-width:0.8;" x="39.53" xlink:href="#me38ce33d3a" y="35.212057"/>
      </g>
     </g>
     <g id="text_16">
      <!-- 70 -->
      <g transform="translate(24.895 37.491588)scale(0.06 -0.06)">
       <use xlink:href="#DejaVuSans-37"/>
       <use x="63.623047" xlink:href="#DejaVuSans-30"/>
      </g>
     </g>
    </g>
    <g id="ytick_9">
     <g id="line2d_24">
      <path clip-path="url(#pe9fd949cb1)" d="M 39.53 249.64 
L 344.388449 249.64 
" style="fill:none;opacity:0.5;stroke:#e8e6bf;stroke-dasharray:5.6,2.4;stroke-dashoffset:0;stroke-width:0.8;"/>
     </g>
     <g id="line2d_25">
      <defs>
       <path d="M 0 0 
L -2 0 
" id="m5268329394" style="stroke:#000000;stroke-width:0.6;"/>
      </defs>
      <g>
       <use style="stroke:#000000;stroke-width:0.6;" x="39.53" xlink:href="#m5268329394" y="249.64"/>
      </g>
     </g>
    </g>
    <g id="ytick_10">
     <g id="line2d_26">
      <path clip-path="url(#pe9fd949cb1)" d="M 39.53 243.513487 
L 344.388449 243.513487 
" style="fill:none;opacity:0.5;stroke:#e8e6bf;stroke-dasharray:5.6,2.4;stroke-dashoffset:0;stroke-width:0.8;"/>
     </g>
     <g id="line2d_27">
      <g>
       <use style="stroke:#000000;stroke-width:0.6;" x="39.53" xlink:href="#m5268329394" y="243.513487"/>
      </g>
     </g>
    </g>
    <g id="ytick_11">
     <g id="line2d_28">
      <path clip-path="url(#pe9fd949cb1)" d="M 39.53 237.386975 
L 344.388449 237.386975 
" style="fill:none;opacity:0.5;stroke:#e8e6bf;stroke-dasharray:5.6,2.4;stroke-dashoffset:0;stroke-width:0.8;"/>
     </g>
     <g id="line2d_29">
      <g>
       <use style="stroke:#000000;stroke-width:0.6;" x="39.53" xlink:href="#m5268329394" y="237.386975"/>
      </g>
     </g>
    </g>
    <g id="ytick_12">
     <g id="line2d_30">
      <path clip-path="url(#pe9fd949cb1)" d="M 39.53 231.260462 
L 344.388449 231.260462 
" style="fill:none;opacity:0.5;stroke:#e8e6bf;stroke-dasharray:5.6,2.4;stroke-dashoffset:0;stroke-width:0.8;"/>
     </g>
     <g id="line2d_31">
      <g>
       <use style="stroke:#000000;stroke-width:0.6;" x="39.53" xlink:href="#m5268329394" y="231.260462"/>
      </g>
     </g>
    </g>
    <g id="ytick_13">
     <g id="line2d_32">
      <path clip-path="url(#pe9fd949cb1)" d="M 39.53 225.133949 
L 344.388449 225.133949 
" style="fill:none;opacity:0.5;stroke:#e8e6bf;stroke-dasharray:5.6,2.4;stroke-dashoffset:0;stroke-width:0.8;"/>
     </g>
     <g id="line2d_33">
      <g>
       <use style="stroke:#000000;stroke-width:0.6;" x="39.53" xlink:href="#m5268329394" y="225.133949"/>
      </g>
     </g>
    </g>
    <g id="ytick_14">
     <g id="line2d_34">
      <path clip-path="url(#pe9fd949cb1)" d="M 39.53 219.007437 
L 344.388449 219.007437 
" style="fill:none;opacity:0.5;stroke:#e8e6bf;stroke-dasharray:5.6,2.4;stroke-dashoffset:0;stroke-width:0.8;"/>
     </g>
     <g id="line2d_35">
      <g>
       <use style="stroke:#000000;stroke-width:0.6;" x="39.53" xlink:href="#m5268329394" y="219.007437"/>
      </g>
     </g>
    </g>
    <g id="ytick_15">
     <g id="line2d_36">
      <path clip-path="url(#pe9fd949cb1)" d="M 39.53 212.880924 
L 344.388449 212.880924 
" style="fill:none;opacity:0.5;stroke:#e8e6bf;stroke-dasharray:5.6,2.4;stroke-dashoffset:0;stroke-width:0.8;"/>
     </g>
     <g id="line2d_37">
      <g>
       <use style="stroke:#000000;stroke-width:0.6;" x="39.53" xlink:href="#m5268329394" y="212.880924"/>
      </g>
     </g>
    </g>
    <g id="ytick_16">
     <g id="line2d_38">
      <path clip-path="url(#pe9fd949cb1)" d="M 39.53 206.754411 
L 344.388449 206.754411 
" style="fill:none;opacity:0.5;stroke:#e8e6bf;stroke-dasharray:5.6,2.4;stroke-dashoffset:0;stroke-width:0.8;"/>
     </g>
     <g id="line2d_39">
      <g>
       <use style="stroke:#000000;stroke-width:0.6;" x="39.53" xlink:href="#m5268329394" y="206.754411"/>
      </g>
     </g>
    </g>
    <g id="ytick_17">
     <g id="line2d_40">
      <path clip-path="url(#pe9fd949cb1)" d="M 39.53 200.627899 
L 344.388449 200.627899 
" style="fill:none;opacity:0.5;stroke:#e8e6bf;stroke-dasharray:5.6,2.4;stroke-dashoffset:0;stroke-width:0.8;"/>
     </g>
     <g id="line2d_41">
      <g>
       <use style="stroke:#000000;stroke-width:0.6;" x="39.53" xlink:href="#m5268329394" y="200.627899"/>
      </g>
     </g>
    </g>
    <g id="ytick_18">
     <g id="line2d_42">
      <path clip-path="url(#pe9fd949cb1)" d="M 39.53 194.501386 
L 344.388449 194.501386 
" style="fill:none;opacity:0.5;stroke:#e8e6bf;stroke-dasharray:5.6,2.4;stroke-dashoffset:0;stroke-width:0.8;"/>
     </g>
     <g id="line2d_43">
      <g>
       <use style="stroke:#000000;stroke-width:0.6;" x="39.53" xlink:href="#m5268329394" y="194.501386"/>
      </g>
     </g>
    </g>
    <g id="ytick_19">
     <g id="line2d_44">
      <path clip-path="url(#pe9fd949cb1)" d="M 39.53 188.374873 
L 344.388449 188.374873 
" style="fill:none;opacity:0.5;stroke:#e8e6bf;stroke-dasharray:5.6,2.4;stroke-dashoffset:0;stroke-width:0.8;"/>
     </g>
     <g id="line2d_45">
      <g>
       <use style="stroke:#000000;stroke-width:0.6;" x="39.53" xlink:href="#m5268329394" y="188.374873"/>
      </g>
     </g>
    </g>
    <g id="ytick_20">
     <g id="line2d_46">
      <path clip-path="url(#pe9fd949cb1)" d="M 39.53 182.248361 
L 344.388449 182.248361 
" style="fill:none;opacity:0.5;stroke:#e8e6bf;stroke-dasharray:5.6,2.4;stroke-dashoffset:0;stroke-width:0.8;"/>
     </g>
     <g id="line2d_47">
      <g>
       <use style="stroke:#000000;stroke-width:0.6;" x="39.53" xlink:href="#m5268329394" y="182.248361"/>
      </g>
     </g>
    </g>
    <g id="ytick_21">
     <g id="line2d_48">
      <path clip-path="url(#pe9fd949cb1)" d="M 39.53 176.121848 
L 344.388449 176.121848 
" style="fill:none;opacity:0.5;stroke:#e8e6bf;stroke-dasharray:5.6,2.4;stroke-dashoffset:0;stroke-width:0.8;"/>
     </g>
     <g id="line2d_49">
      <g>
       <use style="stroke:#000000;stroke-width:0.6;" x="39.53" xlink:href="#m5268329394" y="176.121848"/>
      </g>
     </g>
    </g>
    <g id="ytick_22">
     <g id="line2d_50">
      <path clip-path="url(#pe9fd949cb1)" d="M 39.53 169.995336 
L 344.388449 169.995336 
" style="fill:none;opacity:0.5;stroke:#e8e6bf;stroke-dasharray:5.6,2.4;stroke-dashoffset:0;stroke-width:0.8;"/>
     </g>
     <g id="line2d_51">
      <g>
       <use style="stroke:#000000;stroke-width:0.6;" x="39.53" xlink:href="#m5268329394" y="169.995336"/>
      </g>
     </g>
    </g>
    <g id="ytick_23">
     <g id="line2d_52">
      <path clip-path="url(#pe9fd949cb1)" d="M 39.53 163.868823 
L 344.388449 163.868823 
" style="fill:none;opacity:0.5;stroke:#e8e6bf;stroke-dasharray:5.6,2.4;stroke-dashoffset:0;stroke-width:0.8;"/>
     </g>
     <g id="line2d_53">
      <g>
       <use style="stroke:#000000;stroke-width:0.6;" x="39.53" xlink:href="#m5268329394" y="163.868823"/>
      </g>
     </g>
    </g>
    <g id="ytick_24">
     <g id="line2d_54">
      <path clip-path="url(#pe9fd949cb1)" d="M 39.53 157.74231 
L 344.388449 157.74231 
" style="fill:none;opacity:0.5;stroke:#e8e6bf;stroke-dasharray:5.6,2.4;stroke-dashoffset:0;stroke-width:0.8;"/>
     </g>
     <g id="line2d_55">
      <g>
       <use style="stroke:#000000;stroke-width:0.6;" x="39.53" xlink:href="#m5268329394" y="157.74231"/>
      </g>
     </g>
    </g>
    <g id="ytick_25">
     <g id="line2d_56">
      <path clip-path="url(#pe9fd949cb1)" d="M 39.53 151.615798 
L 344.388449 151.615798 
" style="fill:none;opacity:0.5;stroke:#e8e6bf;stroke-dasharray:5.6,2.4;stroke-dashoffset:0;stroke-width:0.8;"/>
     </g>
     <g id="line2d_57">
      <g>
       <use style="stroke:#000000;stroke-width:0.6;" x="39.53" xlink:href="#m5268329394" y="151.615798"/>
      </g>
     </g>
    </g>
    <g id="ytick_26">
     <g id="line2d_58">
      <path clip-path="url(#pe9fd949cb1)" d="M 39.53 145.489285 
L 344.388449 145.489285 
" style="fill:none;opacity:0.5;stroke:#e8e6bf;stroke-dasharray:5.6,2.4;stroke-dashoffset:0;stroke-width:0.8;"/>
     </g>
     <g id="line2d_59">
      <g>
       <use style="stroke:#000000;stroke-width:0.6;" x="39.53" xlink:href="#m5268329394" y="145.489285"/>
      </g>
     </g>
    </g>
    <g id="ytick_27">
     <g id="line2d_60">
      <path clip-path="url(#pe9fd949cb1)" d="M 39.53 139.362772 
L 344.388449 139.362772 
" style="fill:none;opacity:0.5;stroke:#e8e6bf;stroke-dasharray:5.6,2.4;stroke-dashoffset:0;stroke-width:0.8;"/>
     </g>
     <g id="line2d_61">
      <g>
       <use style="stroke:#000000;stroke-width:0.6;" x="39.53" xlink:href="#m5268329394" y="139.362772"/>
      </g>
     </g>
    </g>
    <g id="ytick_28">
     <g id="line2d_62">
      <path clip-path="url(#pe9fd949cb1)" d="M 39.53 133.23626 
L 344.388449 133.23626 
" style="fill:none;opacity:0.5;stroke:#e8e6bf;stroke-dasharray:5.6,2.4;stroke-dashoffset:0;stroke-width:0.8;"/>
     </g>
     <g id="line2d_63">
      <g>
       <use style="stroke:#000000;stroke-width:0.6;" x="39.53" xlink:href="#m5268329394" y="133.23626"/>
      </g>
     </g>
    </g>
    <g id="ytick_29">
     <g id="line2d_64">
      <path clip-path="url(#pe9fd949cb1)" d="M 39.53 127.109747 
L 344.388449 127.109747 
" style="fill:none;opacity:0.5;stroke:#e8e6bf;stroke-dasharray:5.6,2.4;stroke-dashoffset:0;stroke-width:0.8;"/>
     </g>
     <g id="line2d_65">
      <g>
       <use style="stroke:#000000;stroke-width:0.6;" x="39.53" xlink:href="#m5268329394" y="127.109747"/>
      </g>
     </g>
    </g>
    <g id="ytick_30">
     <g id="line2d_66">
      <path clip-path="url(#pe9fd949cb1)" d="M 39.53 120.983234 
L 344.388449 120.983234 
" style="fill:none;opacity:0.5;stroke:#e8e6bf;stroke-dasharray:5.6,2.4;stroke-dashoffset:0;stroke-width:0.8;"/>
     </g>
     <g id="line2d_67">
      <g>
       <use style="stroke:#000000;stroke-width:0.6;" x="39.53" xlink:href="#m5268329394" y="120.983234"/>
      </g>
     </g>
    </g>
    <g id="ytick_31">
     <g id="line2d_68">
      <path clip-path="url(#pe9fd949cb1)" d="M 39.53 114.856722 
L 344.388449 114.856722 
" style="fill:none;opacity:0.5;stroke:#e8e6bf;stroke-dasharray:5.6,2.4;stroke-dashoffset:0;stroke-width:0.8;"/>
     </g>
     <g id="line2d_69">
      <g>
       <use style="stroke:#000000;stroke-width:0.6;" x="39.53" xlink:href="#m5268329394" y="114.856722"/>
      </g>
     </g>
    </g>
    <g id="ytick_32">
     <g id="line2d_70">
      <path clip-path="url(#pe9fd949cb1)" d="M 39.53 108.730209 
L 344.388449 108.730209 
" style="fill:none;opacity:0.5;stroke:#e8e6bf;stroke-dasharray:5.6,2.4;stroke-dashoffset:0;stroke-width:0.8;"/>
     </g>
     <g id="line2d_71">
      <g>
       <use style="stroke:#000000;stroke-width:0.6;" x="39.53" xlink:href="#m5268329394" y="108.730209"/>
      </g>
     </g>
    </g>
    <g id="ytick_33">
     <g id="line2d_72">
      <path clip-path="url(#pe9fd949cb1)" d="M 39.53 102.603696 
L 344.388449 102.603696 
" style="fill:none;opacity:0.5;stroke:#e8e6bf;stroke-dasharray:5.6,2.4;stroke-dashoffset:0;stroke-width:0.8;"/>
     </g>
     <g id="line2d_73">
      <g>
       <use style="stroke:#000000;stroke-width:0.6;" x="39.53" xlink:href="#m5268329394" y="102.603696"/>
      </g>
     </g>
    </g>
    <g id="ytick_34">
     <g id="line2d_74">
      <path clip-path="url(#pe9fd949cb1)" d="M 39.53 96.477184 
L 344.388449 96.477184 
" style="fill:none;opacity:0.5;stroke:#e8e6bf;stroke-dasharray:5.6,2.4;stroke-dashoffset:0;stroke-width:0.8;"/>
     </g>
     <g id="line2d_75">
      <g>
       <use style="stroke:#000000;stroke-width:0.6;" x="39.53" xlink:href="#m5268329394" y="96.477184"/>
      </g>
     </g>
    </g>
    <g id="ytick_35">
     <g id="line2d_76">
      <path clip-path="url(#pe9fd949cb1)" d="M 39.53 90.350671 
L 344.388449 90.350671 
" style="fill:none;opacity:0.5;stroke:#e8e6bf;stroke-dasharray:5.6,2.4;stroke-dashoffset:0;stroke-width:0.8;"/>
     </g>
     <g id="line2d_77">
      <g>
       <use style="stroke:#000000;stroke-width:0.6;" x="39.53" xlink:href="#m5268329394" y="90.350671"/>
      </g>
     </g>
    </g>
    <g id="ytick_36">
     <g id="line2d_78">
      <path clip-path="url(#pe9fd949cb1)" d="M 39.53 84.224158 
L 344.388449 84.224158 
" style="fill:none;opacity:0.5;stroke:#e8e6bf;stroke-dasharray:5.6,2.4;stroke-dashoffset:0;stroke-width:0.8;"/>
     </g>
     <g id="line2d_79">
      <g>
       <use style="stroke:#000000;stroke-width:0.6;" x="39.53" xlink:href="#m5268329394" y="84.224158"/>
      </g>
     </g>
    </g>
    <g id="ytick_37">
     <g id="line2d_80">
      <path clip-path="url(#pe9fd949cb1)" d="M 39.53 78.097646 
L 344.388449 78.097646 
" style="fill:none;opacity:0.5;stroke:#e8e6bf;stroke-dasharray:5.6,2.4;stroke-dashoffset:0;stroke-width:0.8;"/>
     </g>
     <g id="line2d_81">
      <g>
       <use style="stroke:#000000;stroke-width:0.6;" x="39.53" xlink:href="#m5268329394" y="78.097646"/>
      </g>
     </g>
    </g>
    <g id="ytick_38">
     <g id="line2d_82">
      <path clip-path="url(#pe9fd949cb1)" d="M 39.53 71.971133 
L 344.388449 71.971133 
" style="fill:none;opacity:0.5;stroke:#e8e6bf;stroke-dasharray:5.6,2.4;stroke-dashoffset:0;stroke-width:0.8;"/>
     </g>
     <g id="line2d_83">
      <g>
       <use style="stroke:#000000;stroke-width:0.6;" x="39.53" xlink:href="#m5268329394" y="71.971133"/>
      </g>
     </g>
    </g>
    <g id="ytick_39">
     <g id="line2d_84">
      <path clip-path="url(#pe9fd949cb1)" d="M 39.53 65.84462 
L 344.388449 65.84462 
" style="fill:none;opacity:0.5;stroke:#e8e6bf;stroke-dasharray:5.6,2.4;stroke-dashoffset:0;stroke-width:0.8;"/>
     </g>
     <g id="line2d_85">
      <g>
       <use style="stroke:#000000;stroke-width:0.6;" x="39.53" xlink:href="#m5268329394" y="65.84462"/>
      </g>
     </g>
    </g>
    <g id="ytick_40">
     <g id="line2d_86">
      <path clip-path="url(#pe9fd949cb1)" d="M 39.53 59.718108 
L 344.388449 59.718108 
" style="fill:none;opacity:0.5;stroke:#e8e6bf;stroke-dasharray:5.6,2.4;stroke-dashoffset:0;stroke-width:0.8;"/>
     </g>
     <g id="line2d_87">
      <g>
       <use style="stroke:#000000;stroke-width:0.6;" x="39.53" xlink:href="#m5268329394" y="59.718108"/>
      </g>
     </g>
    </g>
    <g id="ytick_41">
     <g id="line2d_88">
      <path clip-path="url(#pe9fd949cb1)" d="M 39.53 53.591595 
L 344.388449 53.591595 
" style="fill:none;opacity:0.5;stroke:#e8e6bf;stroke-dasharray:5.6,2.4;stroke-dashoffset:0;stroke-width:0.8;"/>
     </g>
     <g id="line2d_89">
      <g>
       <use style="stroke:#000000;stroke-width:0.6;" x="39.53" xlink:href="#m5268329394" y="53.591595"/>
      </g>
     </g>
    </g>
    <g id="ytick_42">
     <g id="line2d_90">
      <path clip-path="url(#pe9fd949cb1)" d="M 39.53 47.465083 
L 344.388449 47.465083 
" style="fill:none;opacity:0.5;stroke:#e8e6bf;stroke-dasharray:5.6,2.4;stroke-dashoffset:0;stroke-width:0.8;"/>
     </g>
     <g id="line2d_91">
      <g>
       <use style="stroke:#000000;stroke-width:0.6;" x="39.53" xlink:href="#m5268329394" y="47.465083"/>
      </g>
     </g>
    </g>
    <g id="ytick_43">
     <g id="line2d_92">
      <path clip-path="url(#pe9fd949cb1)" d="M 39.53 41.33857 
L 344.388449 41.33857 
" style="fill:none;opacity:0.5;stroke:#e8e6bf;stroke-dasharray:5.6,2.4;stroke-dashoffset:0;stroke-width:0.8;"/>
     </g>
     <g id="line2d_93">
      <g>
       <use style="stroke:#000000;stroke-width:0.6;" x="39.53" xlink:href="#m5268329394" y="41.33857"/>
      </g>
     </g>
    </g>
    <g id="ytick_44">
     <g id="line2d_94">
      <path clip-path="url(#pe9fd949cb1)" d="M 39.53 35.212057 
L 344.388449 35.212057 
" style="fill:none;opacity:0.5;stroke:#e8e6bf;stroke-dasharray:5.6,2.4;stroke-dashoffset:0;stroke-width:0.8;"/>
     </g>
     <g id="line2d_95">
      <g>
       <use style="stroke:#000000;stroke-width:0.6;" x="39.53" xlink:href="#m5268329394" y="35.212057"/>
      </g>
     </g>
    </g>
    <g id="text_17">
     <!-- Calls -->
     <defs>
      <path d="M 64.40625 67.28125 
L 64.40625 56.890625 
Q 59.421875 61.53125 53.78125 63.8125 
Q 48.140625 66.109375 41.796875 66.109375 
Q 29.296875 66.109375 22.65625 58.46875 
Q 16.015625 50.828125 16.015625 36.375 
Q 16.015625 21.96875 22.65625 14.328125 
Q 29.296875 6.6875 41.796875 6.6875 
Q 48.140625 6.6875 53.78125 8.984375 
Q 59.421875 11.28125 64.40625 15.921875 
L 64.40625 5.609375 
Q 59.234375 2.09375 53.4375 0.328125 
Q 47.65625 -1.421875 41.21875 -1.421875 
Q 24.65625 -1.421875 15.125 8.703125 
Q 5.609375 18.84375 5.609375 36.375 
Q 5.609375 53.953125 15.125 64.078125 
Q 24.65625 74.21875 41.21875 74.21875 
Q 47.75 74.21875 53.53125 72.484375 
Q 59.328125 70.75 64.40625 67.28125 
" id="DejaVuSans-43"/>
      <path d="M 44.28125 53.078125 
L 44.28125 44.578125 
Q 40.484375 46.53125 36.375 47.5 
Q 32.28125 48.484375 27.875 48.484375 
Q 21.1875 48.484375 17.84375 46.4375 
Q 14.5 44.390625 14.5 40.28125 
Q 14.5 37.15625 16.890625 35.375 
Q 19.28125 33.59375 26.515625 31.984375 
L 29.59375 31.296875 
Q 39.15625 29.25 43.1875 25.515625 
Q 47.21875 21.78125 47.21875 15.09375 
Q 47.21875 7.46875 41.1875 3.015625 
Q 35.15625 -1.421875 24.609375 -1.421875 
Q 20.21875 -1.421875 15.453125 -0.5625 
Q 10.6875 0.296875 5.421875 2 
L 5.421875 11.28125 
Q 10.40625 8.6875 15.234375 7.390625 
Q 20.0625 6.109375 24.8125 6.109375 
Q 31.15625 6.109375 34.5625 8.28125 
Q 37.984375 10.453125 37.984375 14.40625 
Q 37.984375 18.0625 35.515625 20.015625 
Q 33.0625 21.96875 24.703125 23.78125 
L 21.578125 24.515625 
Q 13.234375 26.265625 9.515625 29.90625 
Q 5.8125 33.546875 5.8125 39.890625 
Q 5.8125 47.609375 11.28125 51.796875 
Q 16.75 56 26.8125 56 
Q 31.78125 56 36.171875 55.265625 
Q 40.578125 54.546875 44.28125 53.078125 
" id="DejaVuSans-73"/>
     </defs>
     <g transform="translate(18.815312 150.198281)rotate(-90)scale(0.1 -0.1)">
      <use xlink:href="#DejaVuSans-43"/>
      <use x="69.824219" xlink:href="#DejaVuSans-61"/>
      <use x="131.103516" xlink:href="#DejaVuSans-6c"/>
      <use x="158.886719" xlink:href="#DejaVuSans-6c"/>
      <use x="186.669922" xlink:href="#DejaVuSans-73"/>
     </g>
    </g>
   </g>
   <g id="patch_3">
    <path clip-path="url(#pe9fd949cb1)" d="M 42.518808 249.64 
L 69.689793 249.64 
L 69.689793 29.085545 
L 42.518808 29.085545 
z
" style="fill:#8f8f8f;"/>
   </g>
   <g id="patch_4">
    <path clip-path="url(#pe9fd949cb1)" d="M 87.803783 249.64 
L 114.974768 249.64 
L 114.974768 133.23626 
L 87.803783 133.23626 
z
" style="fill:#8f8f8f;"/>
   </g>
   <g id="patch_5">
    <path clip-path="url(#pe9fd949cb1)" d="M 133.088758 249.64 
L 160.259742 249.64 
L 160.259742 157.74231 
L 133.088758 157.74231 
z
" style="fill:#8f8f8f;"/>
   </g>
   <g id="patch_6">
    <path clip-path="url(#pe9fd949cb1)" d="M 178.373732 249.64 
L 205.544717 249.64 
L 205.544717 41.33857 
L 178.373732 41.33857 
z
" style="fill:#8f8f8f;"/>
   </g>
   <g id="patch_7">
    <path clip-path="url(#pe9fd949cb1)" d="M 223.658707 249.64 
L 250.829692 249.64 
L 250.829692 41.33857 
L 223.658707 41.33857 
z
" style="fill:#8f8f8f;"/>
   </g>
   <g id="patch_8">
    <path clip-path="url(#pe9fd949cb1)" d="M 268.943681 249.64 
L 296.114666 249.64 
L 296.114666 191.43813 
L 268.943681 191.43813 
z
" style="fill:#8f8f8f;"/>
   </g>
   <g id="patch_9">
    <path clip-path="url(#pe9fd949cb1)" d="M 314.228656 249.64 
L 341.399641 249.64 
L 341.399641 246.576744 
L 314.228656 246.576744 
z
" style="fill:#8f8f8f;"/>
   </g>
   <g id="patch_10">
    <path clip-path="url(#pe9fd949cb1)" d="M 47.047306 249.64 
L 65.161296 249.64 
L 65.161296 59.718108 
L 47.047306 59.718108 
z
" style="fill:#00b9ff;"/>
   </g>
   <g id="patch_11">
    <path clip-path="url(#pe9fd949cb1)" d="M 92.33228 249.64 
L 110.44627 249.64 
L 110.44627 133.23626 
L 92.33228 133.23626 
z
" style="fill:#00b9ff;"/>
   </g>
   <g id="patch_12">
    <path clip-path="url(#pe9fd949cb1)" d="M 137.617255 249.64 
L 155.731245 249.64 
L 155.731245 182.248361 
L 137.617255 182.248361 
z
" style="fill:#00b9ff;"/>
   </g>
   <g id="patch_13">
    <path clip-path="url(#pe9fd949cb1)" d="M 182.90223 249.64 
L 201.01622 249.64 
L 201.01622 53.591595 
L 182.90223 53.591595 
z
" style="fill:#00b9ff;"/>
   </g>
   <g id="patch_14">
    <path clip-path="url(#pe9fd949cb1)" d="M 228.187204 249.64 
L 246.301194 249.64 
L 246.301194 47.465083 
L 228.187204 47.465083 
z
" style="fill:#00b9ff;"/>
   </g>
   <g id="patch_15">
    <path clip-path="url(#pe9fd949cb1)" d="M 273.472179 249.64 
L 291.586169 249.64 
L 291.586169 200.627899 
L 273.472179 200.627899 
z
" style="fill:#00b9ff;"/>
   </g>
   <g id="patch_16">
    <path clip-path="url(#pe9fd949cb1)" d="M 318.757154 249.64 
L 336.871143 249.64 
L 336.871143 246.576744 
L 318.757154 246.576744 
z
" style="fill:#00b9ff;"/>
   </g>
   <g id="patch_17">
    <path clip-path="url(#pe9fd949cb1)" d="M 51.575803 249.64 
L 60.632798 249.64 
L 60.632798 219.007437 
L 51.575803 219.007437 
z
" style="fill:#ff0056;"/>
   </g>
   <g id="patch_18">
    <path clip-path="url(#pe9fd949cb1)" d="M 96.860778 249.64 
L 105.917773 249.64 
L 105.917773 249.64 
L 96.860778 249.64 
z
" style="fill:#ff0056;"/>
   </g>
   <g id="patch_19">
    <path clip-path="url(#pe9fd949cb1)" d="M 142.145753 249.64 
L 151.202747 249.64 
L 151.202747 225.133949 
L 142.145753 225.133949 
z
" style="fill:#ff0056;"/>
   </g>
   <g id="patch_20">
    <path clip-path="url(#pe9fd949cb1)" d="M 187.430727 249.64 
L 196.487722 249.64 
L 196.487722 237.386975 
L 187.430727 237.386975 
z
" style="fill:#ff0056;"/>
   </g>
   <g id="patch_21">
    <path clip-path="url(#pe9fd949cb1)" d="M 232.715702 249.64 
L 241.772697 249.64 
L 241.772697 243.513487 
L 232.715702 243.513487 
z
" style="fill:#ff0056;"/>
   </g>
   <g id="patch_22">
    <path clip-path="url(#pe9fd949cb1)" d="M 278.000676 249.64 
L 287.057671 249.64 
L 287.057671 240.450231 
L 278.000676 240.450231 
z
" style="fill:#ff0056;"/>
   </g>
   <g id="patch_23">
    <path clip-path="url(#pe9fd949cb1)" d="M 323.285651 249.64 
L 332.342646 249.64 
L 332.342646 249.64 
L 323.285651 249.64 
z
" style="fill:#ff0056;"/>
   </g>
   <g id="patch_24">
    <path d="M 39.53 249.64 
L 39.53 26.88 
" style="fill:none;stroke:#000000;stroke-linecap:square;stroke-linejoin:miter;stroke-width:0.8;"/>
   </g>
   <g id="patch_25">
    <path d="M 344.388449 249.64 
L 344.388449 26.88 
" style="fill:none;stroke:#000000;stroke-linecap:square;stroke-linejoin:miter;stroke-width:0.8;"/>
   </g>
   <g id="patch_26">
    <path d="M 39.53 249.64 
L 344.388449 249.64 
" style="fill:none;stroke:#000000;stroke-linecap:square;stroke-linejoin:miter;stroke-width:0.8;"/>
   </g>
   <g id="patch_27">
    <path d="M 39.53 26.88 
L 344.388449 26.88 
" style="fill:none;stroke:#000000;stroke-linecap:square;stroke-linejoin:miter;stroke-width:0.8;"/>
   </g>
   <g id="text_18">
    <!-- KW14/17 -->
    <defs>
     <path d="M 25.390625 72.90625 
L 33.6875 72.90625 
L 8.296875 -9.28125 
L 0 -9.28125 
z
" id="DejaVuSans-2f"/>
    </defs>
    <g transform="translate(164.8036 20.88)scale(0.12 -0.12)">
     <use xlink:href="#DejaVuSans-4b"/>
     <use x="65.529297" xlink:href="#DejaVuSans-57"/>
     <use x="164.40625" xlink:href="#DejaVuSans-31"/>
     <use x="228.029297" xlink:href="#DejaVuSans-34"/>
     <use x="291.652344" xlink:href="#DejaVuSans-2f"/>
     <use x="325.34375" xlink:href="#DejaVuSans-31"/>
     <use x="388.966797" xlink:href="#DejaVuSans-37"/>
    </g>
   </g>
   <g id="legend_1">
    <g id="patch_28">
     <path d="M 279.682199 58.100625 
L 340.188449 58.100625 
Q 341.388449 58.100625 341.388449 56.900625 
L 341.388449 31.08 
Q 341.388449 29.88 340.188449 29.88 
L 279.682199 29.88 
Q 278.482199 29.88 278.482199 31.08 
L 278.482199 56.900625 
Q 278.482199 58.100625 279.682199 58.100625 
z
" style="fill:#ffffff;opacity:0.8;stroke:#cccccc;stroke-linejoin:miter;"/>
    </g>
    <g id="patch_29">
     <path d="M 280.882199 36.839063 
L 292.882199 36.839063 
L 292.882199 32.639063 
L 280.882199 32.639063 
z
" style="fill:#8f8f8f;"/>
    </g>
    <g id="text_19">
     <!-- angekommen -->
     <defs>
      <path d="M 45.40625 27.984375 
Q 45.40625 37.75 41.375 43.109375 
Q 37.359375 48.484375 30.078125 48.484375 
Q 22.859375 48.484375 18.828125 43.109375 
Q 14.796875 37.75 14.796875 27.984375 
Q 14.796875 18.265625 18.828125 12.890625 
Q 22.859375 7.515625 30.078125 7.515625 
Q 37.359375 7.515625 41.375 12.890625 
Q 45.40625 18.265625 45.40625 27.984375 
M 54.390625 6.78125 
Q 54.390625 -7.171875 48.1875 -13.984375 
Q 42 -20.796875 29.203125 -20.796875 
Q 24.46875 -20.796875 20.265625 -20.09375 
Q 16.0625 -19.390625 12.109375 -17.921875 
L 12.109375 -9.1875 
Q 16.0625 -11.328125 19.921875 -12.34375 
Q 23.78125 -13.375 27.78125 -13.375 
Q 36.625 -13.375 41.015625 -8.765625 
Q 45.40625 -4.15625 45.40625 5.171875 
L 45.40625 9.625 
Q 42.625 4.78125 38.28125 2.390625 
Q 33.9375 0 27.875 0 
Q 17.828125 0 11.671875 7.65625 
Q 5.515625 15.328125 5.515625 27.984375 
Q 5.515625 40.671875 11.671875 48.328125 
Q 17.828125 56 27.875 56 
Q 33.9375 56 38.28125 53.609375 
Q 42.625 51.21875 45.40625 46.390625 
L 45.40625 54.6875 
L 54.390625 54.6875 
z
" id="DejaVuSans-67"/>
      <path d="M 9.078125 75.984375 
L 18.109375 75.984375 
L 18.109375 31.109375 
L 44.921875 54.6875 
L 56.390625 54.6875 
L 27.390625 29.109375 
L 57.625 0 
L 45.90625 0 
L 18.109375 26.703125 
L 18.109375 0 
L 9.078125 0 
z
" id="DejaVuSans-6b"/>
      <path d="M 52 44.1875 
Q 55.375 50.25 60.0625 53.125 
Q 64.75 56 71.09375 56 
Q 79.640625 56 84.28125 50.015625 
Q 88.921875 44.046875 88.921875 33.015625 
L 88.921875 0 
L 79.890625 0 
L 79.890625 32.71875 
Q 79.890625 40.578125 77.09375 44.375 
Q 74.3125 48.1875 68.609375 48.1875 
Q 61.625 48.1875 57.5625 43.546875 
Q 53.515625 38.921875 53.515625 30.90625 
L 53.515625 0 
L 44.484375 0 
L 44.484375 32.71875 
Q 44.484375 40.625 41.703125 44.40625 
Q 38.921875 48.1875 33.109375 48.1875 
Q 26.21875 48.1875 22.15625 43.53125 
Q 18.109375 38.875 18.109375 30.90625 
L 18.109375 0 
L 9.078125 0 
L 9.078125 54.6875 
L 18.109375 54.6875 
L 18.109375 46.1875 
Q 21.1875 51.21875 25.484375 53.609375 
Q 29.78125 56 35.6875 56 
Q 41.65625 56 45.828125 52.96875 
Q 50 49.953125 52 44.1875 
" id="DejaVuSans-6d"/>
     </defs>
     <g transform="translate(297.682199 36.839063)scale(0.06 -0.06)">
      <use xlink:href="#DejaVuSans-61"/>
      <use x="61.279297" xlink:href="#DejaVuSans-6e"/>
      <use x="124.658203" xlink:href="#DejaVuSans-67"/>
      <use x="188.134766" xlink:href="#DejaVuSans-65"/>
      <use x="249.658203" xlink:href="#DejaVuSans-6b"/>
      <use x="307.521484" xlink:href="#DejaVuSans-6f"/>
      <use x="368.703125" xlink:href="#DejaVuSans-6d"/>
      <use x="466.115234" xlink:href="#DejaVuSans-6d"/>
      <use x="563.527344" xlink:href="#DejaVuSans-65"/>
      <use x="625.050781" xlink:href="#DejaVuSans-6e"/>
     </g>
    </g>
    <g id="patch_30">
     <path d="M 280.882199 45.645938 
L 292.882199 45.645938 
L 292.882199 41.445937 
L 280.882199 41.445937 
z
" style="fill:#00b9ff;"/>
    </g>
    <g id="text_20">
     <!-- verbunden -->
     <defs>
      <path d="M 2.984375 54.6875 
L 12.5 54.6875 
L 29.59375 8.796875 
L 46.6875 54.6875 
L 56.203125 54.6875 
L 35.6875 0 
L 23.484375 0 
z
" id="DejaVuSans-76"/>
      <path d="M 48.6875 27.296875 
Q 48.6875 37.203125 44.609375 42.84375 
Q 40.53125 48.484375 33.40625 48.484375 
Q 26.265625 48.484375 22.1875 42.84375 
Q 18.109375 37.203125 18.109375 27.296875 
Q 18.109375 17.390625 22.1875 11.75 
Q 26.265625 6.109375 33.40625 6.109375 
Q 40.53125 6.109375 44.609375 11.75 
Q 48.6875 17.390625 48.6875 27.296875 
M 18.109375 46.390625 
Q 20.953125 51.265625 25.265625 53.625 
Q 29.59375 56 35.59375 56 
Q 45.5625 56 51.78125 48.09375 
Q 58.015625 40.1875 58.015625 27.296875 
Q 58.015625 14.40625 51.78125 6.484375 
Q 45.5625 -1.421875 35.59375 -1.421875 
Q 29.59375 -1.421875 25.265625 0.953125 
Q 20.953125 3.328125 18.109375 8.203125 
L 18.109375 0 
L 9.078125 0 
L 9.078125 75.984375 
L 18.109375 75.984375 
z
" id="DejaVuSans-62"/>
     </defs>
     <g transform="translate(297.682199 45.645938)scale(0.06 -0.06)">
      <use xlink:href="#DejaVuSans-76"/>
      <use x="59.179688" xlink:href="#DejaVuSans-65"/>
      <use x="120.703125" xlink:href="#DejaVuSans-72"/>
      <use x="161.816406" xlink:href="#DejaVuSans-62"/>
      <use x="225.292969" xlink:href="#DejaVuSans-75"/>
      <use x="288.671875" xlink:href="#DejaVuSans-6e"/>
      <use x="352.050781" xlink:href="#DejaVuSans-64"/>
      <use x="415.527344" xlink:href="#DejaVuSans-65"/>
      <use x="477.050781" xlink:href="#DejaVuSans-6e"/>
     </g>
    </g>
    <g id="patch_31">
     <path d="M 280.882199 54.452813 
L 292.882199 54.452813 
L 292.882199 50.252813 
L 280.882199 50.252813 
z
" style="fill:#ff0056;"/>
    </g>
    <g id="text_21">
     <!-- verloren -->
     <g transform="translate(297.682199 54.452813)scale(0.06 -0.06)">
      <use xlink:href="#DejaVuSans-76"/>
      <use x="59.179688" xlink:href="#DejaVuSans-65"/>
      <use x="120.703125" xlink:href="#DejaVuSans-72"/>
      <use x="161.816406" xlink:href="#DejaVuSans-6c"/>
      <use x="189.599609" xlink:href="#DejaVuSans-6f"/>
      <use x="250.78125" xlink:href="#DejaVuSans-72"/>
      <use x="291.863281" xlink:href="#DejaVuSans-65"/>
      <use x="353.386719" xlink:href="#DejaVuSans-6e"/>
     </g>
    </g>
   </g>
  </g>
 </g>
 <defs>
  <clipPath id="pe9fd949cb1">
   <rect height="222.76" width="304.858449" x="39.53" y="26.88"/>
  </clipPath>
 </defs>
</svg>
